<svg width="16" height="16" viewBox="0 0 16 16" fill="none" xmlns="http://www.w3.org/2000/svg">
<path d="M3.72557 10.2577C3.55668 10.0681 3.45716 9.82627 3.44346 9.57215V6.40329C3.45713 6.14914 3.55664 5.90729 3.72557 5.71768L3.94867 5.49344C4.02349 5.4181 4.0655 5.31601 4.0655 5.20957C4.0655 5.10312 4.02349 5.00102 3.94867 4.92569L1.58217 2.54683C1.50712 2.47172 1.40553 2.42954 1.29961 2.42954C1.1937 2.42954 1.0921 2.47172 1.01706 2.54683L0.116249 3.45223C0.041779 3.52775 0 3.62978 0 3.73611C0 3.84244 0.041779 3.94446 0.116249 4.01999L1.80527 5.7176C1.97449 5.90705 2.07414 6.14898 2.08767 6.40322V9.57208C2.07418 9.82619 1.97451 10.0679 1.80527 10.2572L0.116249 11.9555C0.041779 12.031 0 12.1331 0 12.2393C0 12.3457 0.041779 12.4477 0.116249 12.5232L1.01706 13.4286C1.09211 13.5037 1.19371 13.5459 1.29961 13.5459C1.40552 13.5459 1.50712 13.5037 1.58217 13.4286L3.94867 11.0496C4.02348 10.9742 4.06549 10.8722 4.06549 10.7657C4.06549 10.6592 4.02348 10.5572 3.94867 10.4819L3.72557 10.2577Z" fill="#583BD1"/>
<path d="M10.2292 12.2553C10.0406 12.4251 9.80004 12.5252 9.54719 12.5392H6.39527C6.14226 12.5252 5.90153 12.4251 5.71268 12.2553L5.49011 12.0305C5.4148 11.9556 5.31318 11.9137 5.20729 11.9137C5.1014 11.9137 4.99978 11.9556 4.92447 12.0305L2.55827 14.4094C2.48357 14.4849 2.44163 14.5871 2.44163 14.6936C2.44163 14.8001 2.48357 14.9023 2.55827 14.9777L3.45908 15.8832C3.53429 15.958 3.63586 16 3.74171 16C3.84755 16 3.94912 15.958 4.02434 15.8832L5.71298 14.1847C5.90178 14.015 6.14244 13.9149 6.39534 13.9009H9.54817C9.80101 13.9149 10.0415 14.0149 10.2302 14.1847L11.9195 15.8832C11.9947 15.958 12.0962 16 12.2021 16C12.3078 16 12.4094 15.958 12.4845 15.8832L13.3853 14.9777C13.4601 14.9023 13.502 14.8001 13.502 14.6936C13.502 14.5871 13.4601 14.4849 13.3853 14.4094L11.0174 12.0303C10.9423 11.9555 10.8408 11.9135 10.735 11.9135C10.6293 11.9135 10.5277 11.9555 10.4526 12.0303L10.2292 12.2553Z" fill="#583BD1"/>
<path d="M12.2734 5.74212C12.4427 5.93193 12.5426 6.17415 12.5563 6.42871V9.59637C12.5425 9.85079 12.4427 10.0928 12.2734 10.2824L12.0503 10.5072C11.9757 10.5826 11.9338 10.6847 11.9338 10.7911C11.9338 10.8974 11.9757 10.9995 12.0503 11.0749L14.4174 13.4535C14.4925 13.5286 14.5941 13.5707 14.6999 13.5707C14.8059 13.5707 14.9074 13.5286 14.9825 13.4535L15.8833 12.5476C15.958 12.4722 16 12.3701 16 12.2637C16 12.1573 15.958 12.0552 15.8833 11.9798L14.1946 10.2821C14.0253 10.0925 13.9254 9.85049 13.9116 9.59607L13.912 6.42841C13.9256 6.17386 14.0253 5.93163 14.1946 5.74182L15.8833 4.0442C15.958 3.96895 16 3.86696 16 3.76062C16 3.65429 15.958 3.5523 15.8833 3.47705L14.9825 2.57112C14.9454 2.53383 14.9013 2.50425 14.8529 2.48406C14.8044 2.46388 14.7525 2.45349 14.6999 2.45349C14.6475 2.45349 14.5955 2.46388 14.5471 2.48406C14.4986 2.50425 14.4545 2.53383 14.4174 2.57112L12.0503 4.9496C11.9757 5.02506 11.9338 5.12713 11.9338 5.23351C11.9338 5.3399 11.9757 5.44196 12.0503 5.51743L12.2734 5.74212Z" fill="#583BD1"/>
<path d="M5.76973 3.7446C5.95829 3.57462 6.19895 3.47445 6.45187 3.46068H9.60405C9.8569 3.47469 10.0974 3.57483 10.2861 3.7446L10.5097 3.96928C10.5468 4.00657 10.5908 4.03614 10.6392 4.05632C10.6877 4.07649 10.7396 4.08688 10.792 4.08688C10.8445 4.08688 10.8964 4.07649 10.9448 4.05632C10.9933 4.03614 11.0373 4.00657 11.0744 3.96928L13.4412 1.59028C13.5159 1.51475 13.5578 1.41259 13.5578 1.3061C13.5578 1.19962 13.5159 1.09745 13.4412 1.02192L12.5404 0.11758C12.4654 0.0422914 12.3638 0 12.2578 0C12.1518 0 12.0502 0.0422914 11.9752 0.11758L10.2862 1.8152C10.0975 1.98496 9.85697 2.08509 9.60413 2.09911H6.45187C6.19895 2.08534 5.95829 1.98517 5.76973 1.8152L4.08071 0.11758C4.0055 0.0427497 3.90395 0.000773653 3.79812 0.000773653C3.69229 0.000773653 3.59074 0.0427497 3.51553 0.11758L2.61472 1.02297C2.54004 1.09849 2.49812 1.20064 2.49812 1.30712C2.49812 1.41359 2.54004 1.51574 2.61472 1.59126L4.981 3.96921C5.05597 4.0445 5.15761 4.08678 5.26359 4.08678C5.36957 4.08678 5.47122 4.0445 5.54618 3.96921L5.76973 3.7446Z" fill="#583BD1"/>
<g opacity="0.1">
<path opacity="0.1" d="M11.9994 11.8106V11.9994H11.8106" stroke="#20263C" stroke-miterlimit="10"/>
<path opacity="0.1" d="M11.4481 11.9994H4.37001" stroke="#20263C" stroke-miterlimit="10" stroke-dasharray="5.77 5.77"/>
<path opacity="0.1" d="M4.18878 11.9994H4V11.8106" stroke="#20263C" stroke-miterlimit="10"/>
<path opacity="0.1" d="M4 11.4475V4.37001" stroke="#20263C" stroke-miterlimit="10" stroke-dasharray="5.77 5.77"/>
<path opacity="0.1" d="M4 4.18878V4H4.18878" stroke="#20263C" stroke-miterlimit="10"/>
<path opacity="0.1" d="M4.55188 4H11.6294" stroke="#20263C" stroke-miterlimit="10" stroke-dasharray="5.77 5.77"/>
<path opacity="0.1" d="M11.8106 4H11.9994V4.18878" stroke="#20263C" stroke-miterlimit="10"/>
<path opacity="0.1" d="M11.9994 4.55125V11.6294" stroke="#20263C" stroke-miterlimit="10" stroke-dasharray="5.77 5.77"/>
</g>
<path d="M9.32117 8.46912C9.2573 8.39838 9.20312 8.31944 9.16007 8.2344C9.09207 8.10111 8.99807 7.98277 8.88362 7.88637C8.76917 7.78997 8.63658 7.71745 8.49367 7.67309C8.3687 7.63445 8.23793 7.61805 8.10729 7.62463C8.20238 7.6192 8.296 7.6499 8.3694 7.71058C8.4428 7.77127 8.49057 7.85744 8.50311 7.95185C8.53748 8.15585 8.62789 8.34627 8.76425 8.50184C8.90059 8.65741 9.07751 8.77201 9.27523 8.83284C9.50132 8.90233 9.7436 8.89858 9.96744 8.82215C9.7181 8.78148 9.49012 8.65695 9.32117 8.46912Z" fill="#414042"/>
<path d="M7.70769 7.63721C7.73675 7.76486 7.78786 7.88645 7.85872 7.99653C7.80697 7.9166 7.78706 7.82018 7.8029 7.72629C7.81874 7.6324 7.8692 7.54786 7.9443 7.48933C8.10382 7.35739 8.22357 7.18375 8.29024 6.98776C8.3569 6.79177 8.36785 6.58113 8.32187 6.37929C8.26938 6.14839 8.14488 5.94015 7.96633 5.78462C8.05522 6.02224 8.06033 6.2831 7.9808 6.52402C7.95035 6.61498 7.90804 6.70152 7.85494 6.7814C7.77343 6.90688 7.71789 7.04744 7.69163 7.19476C7.66536 7.34208 7.6689 7.49317 7.70203 7.6391L7.70769 7.63721Z" fill="#414042"/>
<path d="M8.30865 8.02233C8.26584 8.10745 8.19244 8.17324 8.10316 8.2065C8.01388 8.23976 7.91532 8.23803 7.82726 8.20168C7.63318 8.12894 7.4227 8.11161 7.21934 8.15162C7.01598 8.19162 6.82775 8.28739 6.67569 8.42822C6.5023 8.58951 6.38463 8.80171 6.33965 9.03421C6.50099 8.83837 6.7243 8.7034 6.9727 8.65161C7.06602 8.63251 7.16136 8.62511 7.2565 8.62958C7.40575 8.63732 7.55502 8.61507 7.69553 8.56417C7.83603 8.51326 7.96491 8.43473 8.07456 8.33319C8.17053 8.24408 8.25017 8.13887 8.30991 8.02233H8.30865Z" fill="#414042"/>
</svg>
