<svg width="50" height="50" viewBox="0 0 50 50" fill="none" xmlns="http://www.w3.org/2000/svg">
<path d="M11.6424 32.0554C11.1146 31.4627 10.8036 30.7071 10.7608 29.913V20.0103C10.8035 19.2161 11.1145 18.4603 11.6424 17.8677L12.3396 17.167C12.5734 16.9316 12.7047 16.6125 12.7047 16.2799C12.7047 15.9472 12.5734 15.6282 12.3396 15.3928L4.94427 7.95884C4.70976 7.7241 4.39228 7.59231 4.06129 7.59231C3.73031 7.59231 3.41282 7.7241 3.17831 7.95884L0.363277 10.7882C0.130559 11.0242 0 11.343 0 11.6753C0 12.0076 0.130559 12.3264 0.363277 12.5625L5.64146 17.8675C6.17028 18.4595 6.48169 19.2156 6.52397 20.01V29.9127C6.48181 30.7068 6.17035 31.4623 5.64146 32.0538L0.363277 37.3609C0.130559 37.5969 0 37.9158 0 38.2479C0 38.5802 0.130559 38.8991 0.363277 39.1351L3.17831 41.9644C3.41284 42.1991 3.73033 42.3309 4.06129 42.3309C4.39225 42.3309 4.70974 42.1991 4.94427 41.9644L12.3396 34.53C12.5734 34.2943 12.7047 33.9755 12.7047 33.6429C12.7047 33.3101 12.5734 32.9913 12.3396 32.7559L11.6424 32.0554Z" fill="#583BD1"/>
<path d="M31.9662 38.2979C31.3768 38.8283 30.6251 39.1413 29.835 39.1851H19.9852C19.1946 39.1413 18.4423 38.8285 17.8521 38.2979L17.1566 37.5953C16.9212 37.3613 16.6037 37.2302 16.2728 37.2302C15.9419 37.2302 15.6243 37.3613 15.389 37.5953L7.9946 45.0292C7.76115 45.2653 7.6301 45.5847 7.6301 45.9175C7.6301 46.2502 7.76115 46.5696 7.9946 46.8054L10.8096 49.6349C11.0447 49.8689 11.3621 50 11.6928 50C12.0236 50 12.341 49.8689 12.5761 49.6349L17.8531 44.3271C18.4431 43.7969 19.1951 43.4842 19.9854 43.4403H29.838C30.6282 43.484 31.3798 43.7967 31.9693 44.3271L37.2486 49.6349C37.4836 49.8689 37.8007 50 38.1315 50C38.462 50 38.7793 49.8689 39.0141 49.6349L41.8291 46.8054C42.0627 46.5696 42.1937 46.2502 42.1937 45.9175C42.1937 45.5847 42.0627 45.2653 41.8291 45.0292L34.4293 37.5948C34.1946 37.3609 33.8775 37.2297 33.547 37.2297C33.2164 37.2297 32.8991 37.3609 32.6643 37.5948L31.9662 38.2979Z" fill="#583BD1"/>
<path d="M38.3545 17.9441C38.8836 18.5373 39.1955 19.2942 39.2385 20.0897V29.9887C39.1953 30.7837 38.8833 31.5401 38.3545 32.1325L37.657 32.8349C37.4239 33.0708 37.2932 33.3896 37.2932 33.7222C37.2932 34.0545 37.4239 34.3733 37.657 34.6092L45.0545 42.0422C45.289 42.2769 45.6066 42.4085 45.9373 42.4085C46.2683 42.4085 46.5857 42.2769 46.8202 42.0422L49.6352 39.2113C49.8688 38.9757 50 38.6566 50 38.3241C50 37.9915 49.8688 37.6724 49.6352 37.4368L44.3582 32.1316C43.8291 31.5391 43.5169 30.7828 43.4737 29.9877L43.4751 20.0888C43.5176 19.2933 43.8291 18.5364 44.3582 17.9432L49.6352 12.6381C49.8688 12.403 50 12.0842 50 11.752C50 11.4197 49.8688 11.1009 49.6352 10.8658L46.8202 8.03476C46.7042 7.91823 46.5667 7.82578 46.4153 7.76271C46.2636 7.69964 46.1014 7.66717 45.9373 7.66717C45.7735 7.66717 45.611 7.69964 45.4596 7.76271C45.308 7.82578 45.1704 7.91823 45.0545 8.03476L37.657 15.4675C37.4239 15.7033 37.2932 16.0223 37.2932 16.3547C37.2932 16.6872 37.4239 17.0061 37.657 17.242L38.3545 17.9441Z" fill="#583BD1"/>
<path d="M18.0304 11.7019C18.6197 11.1707 19.3717 10.8577 20.1621 10.8146H30.0127C30.8028 10.8584 31.5545 11.1713 32.1441 11.7019L32.843 12.404C32.9587 12.5205 33.0962 12.6129 33.2477 12.676C33.3991 12.739 33.5613 12.7715 33.7251 12.7715C33.889 12.7715 34.0514 12.739 34.2026 12.676C34.354 12.6129 34.4915 12.5205 34.6075 12.404L42.0038 4.96962C42.2371 4.73361 42.3681 4.41434 42.3681 4.08156C42.3681 3.7488 42.2371 3.42953 42.0038 3.19349L39.1887 0.367439C38.9545 0.132161 38.6369 0 38.3056 0C37.9744 0 37.6568 0.132161 37.4225 0.367439L32.1444 5.6725C31.5547 6.20299 30.8031 6.51592 30.0129 6.55972H20.1621C19.3717 6.51667 18.6197 6.20366 18.0304 5.6725L12.7522 0.367439C12.5172 0.133593 12.1999 0.00241767 11.8691 0.00241767C11.5384 0.00241767 11.2211 0.133593 10.986 0.367439L8.17101 3.19679C7.93763 3.43278 7.80662 3.752 7.80662 4.08474C7.80662 4.41748 7.93763 4.7367 8.17101 4.97269L15.5656 12.4038C15.7999 12.6391 16.1175 12.7712 16.4487 12.7712C16.7799 12.7712 17.0976 12.6391 17.3318 12.4038L18.0304 11.7019Z" fill="#583BD1"/>
<g opacity="0.1">
<path opacity="0.1" d="M39.9976 40.2897V40.9976H39.2897" stroke="#20263C" stroke-miterlimit="10"/>
<path opacity="0.1" d="M37.9305 40.9976H11.3876" stroke="#20263C" stroke-miterlimit="10" stroke-dasharray="5.77 5.77"/>
<path opacity="0.1" d="M10.7079 40.9976H10V40.2897" stroke="#20263C" stroke-miterlimit="10"/>
<path opacity="0.1" d="M10 38.9281V12.3876" stroke="#20263C" stroke-miterlimit="10" stroke-dasharray="5.77 5.77"/>
<path opacity="0.1" d="M10 11.7079V11H10.7079" stroke="#20263C" stroke-miterlimit="10"/>
<path opacity="0.1" d="M12.0695 11H38.6101" stroke="#20263C" stroke-miterlimit="10" stroke-dasharray="5.77 5.77"/>
<path opacity="0.1" d="M39.2897 11H39.9976V11.7079" stroke="#20263C" stroke-miterlimit="10"/>
<path opacity="0.1" d="M39.9976 13.0672V39.6101" stroke="#20263C" stroke-miterlimit="10" stroke-dasharray="5.77 5.77"/>
</g>
<path d="M29.9544 27.7592C29.7149 27.4939 29.5117 27.1979 29.3503 26.879C29.0952 26.3791 28.7427 25.9354 28.3136 25.5739C27.8844 25.2124 27.3872 24.9404 26.8512 24.7741C26.3826 24.6292 25.8922 24.5677 25.4023 24.5924C25.7589 24.572 26.11 24.6871 26.3852 24.9147C26.6605 25.1422 26.8396 25.4654 26.8866 25.8195C27.0156 26.5844 27.3546 27.2985 27.8659 27.8819C28.3772 28.4653 29.0407 28.895 29.7821 29.1232C30.63 29.3837 31.5385 29.3697 32.3779 29.083C31.4429 28.9306 30.5879 28.4635 29.9544 27.7592Z" fill="white"/>
<path d="M23.9038 24.6396C24.0128 25.1182 24.2045 25.5742 24.4702 25.987C24.2762 25.6873 24.2015 25.3257 24.2609 24.9736C24.3203 24.6215 24.5095 24.3045 24.7911 24.085C25.3893 23.5902 25.8384 22.9391 26.0884 22.2041C26.3384 21.4692 26.3794 20.6792 26.207 19.9223C26.0102 19.0565 25.5433 18.2756 24.8737 17.6923C25.2071 18.5834 25.2262 19.5616 24.928 20.4651C24.8138 20.8062 24.6551 21.1307 24.456 21.4302C24.1503 21.9008 23.9421 22.4279 23.8436 22.9804C23.7451 23.5328 23.7584 24.0994 23.8826 24.6466L23.9038 24.6396Z" fill="white"/>
<path d="M26.1575 26.0837C25.9969 26.4029 25.7216 26.6496 25.3868 26.7744C25.0521 26.8991 24.6825 26.8926 24.3522 26.7563C23.6244 26.4835 22.8351 26.4186 22.0725 26.5686C21.3099 26.7186 20.6041 27.0777 20.0338 27.6058C19.3836 28.2107 18.9424 29.0064 18.7737 29.8783C19.3787 29.1439 20.2161 28.6377 21.1476 28.4435C21.4976 28.3719 21.8551 28.3442 22.2119 28.3609C22.7716 28.3899 23.3313 28.3065 23.8582 28.1156C24.3851 27.9247 24.8684 27.6302 25.2796 27.2495C25.6395 26.9153 25.9382 26.5208 26.1622 26.0837H26.1575Z" fill="white"/>
</svg>
